:FULLY-SPECIFIED
:FORCE-ALL-JOINTS-BE-3DOF
:DEGREES
442
root 1.48949 15.2316 -9.1147 5.49212 4.83139 -13.5423
lfemur -46.8501 16.8114 3.9745
ltibia 62.9553 0 0
lfoot -24.9916 -10.2701 0
ltoes -12.7255 0 0
rfemur -14.9411 -3.44768 8.90199
rtibia 38.8284 0 0
rfoot -14.6389 -13.9723 0
rtoes -49.791 0 0
lowerback 6.02945 1.6015 4.3986
upperback 1.01281 2.43843 0.924751
thorax -2.1908 1.18676 -1.7001
lowerneck -7.15866 0.0337935 5.62298
upperneck 0.687406 -0.434285 0.0690367
head 1.41974 -0.189785 -0.949097
lclavicle 2.90226e-14 6.36111e-15 0
lhumerus -39.6318 -28.4329 97.6213
lradius 54.1431 0 0
lwrist 7.92235 0 0
lhand -20.0855 -1.30814 0
lfingers 7.12502 0 0
lthumb 6.25724 28.5794 0
rclavicle 2.90226e-14 6.36111e-15 0
rhumerus -48.3514 -2.52445 -89.7222
rradius 66.3347 0 0
rwrist 12.906 0 0
rhand -30.9208 -29.1118 0
rfingers 7.12502 0 0
rthumb -4.20662 -779.05 0
443
root 1.54028 15.267 -9.04863 5.42169 6.66701 -13.5031
lfemur -47.0918 16.9007 2.887
ltibia 62.6561 -0 0
lfoot -24.7701 -9.90381 0.0141862
ltoes -11.5222 0 0
rfemur -14.3229 -3.38567 9.11705
rtibia 38.8262 -0 0
rfoot -12.7652 -13.9963 -0.00814192
rtoes -49.6907 0 0
lowerback 5.7585 1.53143 4.44573
upperback 0.926888 2.33684 0.987739
thorax -2.13398 1.13725 -1.6529
lowerneck -7.21053 -0.175082 5.47849
upperneck 0.790218 -0.705193 0.0965638
head 1.45845 -0.323602 -0.928679
lclavicle -5.76476e-14 -2.14687e-14 0
lhumerus -39.9917 -28.2366 98.013
lradius 54.025 -0 0
lwrist 7.59935 0 0
lhand -20.272 -1.85659 0.0179129
lfingers 7.12502 -0 0
lthumb 6.07715 28.0346 0.0171799
rclavicle -5.76476e-14 -2.14687e-14 0
rhumerus -48.6685 -2.59062 -89.2868
rradius 66.1313 -0 0
rwrist 12.7914 0 0
rhand -30.9447 -29.1498 0.000158488
rfingers 7.12502 -0 0
rthumb -4.22969 -59.0875 0.000151104
444
root 1.59107 15.3024 -8.98255 5.35223 8.50269 -13.4661
lfemur -47.3353 16.9855 1.79861
ltibia 62.357 -0 0
lfoot -24.5485 -9.53746 0.0269561
ltoes -10.3189 0 0
rfemur -13.7044 -3.32598 9.33275
rtibia 38.824 -0 0
rfoot -10.8915 -14.0206 -0.0154947
rtoes -49.5903 0 0
lowerback 5.48751 1.46158 4.49319
upperback 0.840861 2.23535 1.05088
thorax -2.0772 1.0877 -1.60575
lowerneck -7.26187 -0.384087 5.33418
upperneck 0.892907 -0.97615 0.123607
head 1.49712 -0.457432 -0.908352
lclavicle -5.76476e-14 -2.14687e-14 0
lhumerus -40.3494 -28.0381 98.4026
lradius 53.9069 -0 0
lwrist 7.27636 0 0
lhand -20.4587 -2.4051 0.0340397
lfingers 7.12502 -0 0
lthumb 5.89691 27.4898 0.0326467
rclavicle -5.76476e-14 -2.14687e-14 0
rhumerus -48.9861 -2.65438 -88.8511
rradius 65.9278 -0 0
rwrist 12.6768 0 0
rhand -30.9686 -29.1878 0.000301127
rfingers 7.12502 -0 0
rthumb -4.25276 -59.125 0.000287099
445
root 1.64186 15.3377 -8.91648 5.28361 10.3384 -13.4311
lfemur -47.5806 17.066 0.709367
ltibia 62.0578 -0 0
lfoot -24.3269 -9.17107 0.0383089
ltoes -9.1156 0 0
rfemur -13.0858 -3.26862 9.54907
rtibia 38.8218 -0 0
rfoot -9.01781 -14.045 -0.0220504
rtoes -49.49 0 0
lowerback 5.21646 1.39195 4.54098
upperback 0.754727 2.13395 1.11416
thorax -2.02047 1.0381 -1.55866
lowerneck -7.31269 -0.593221 5.19006
upperneck 0.995477 -1.24715 0.150166
head 1.53574 -0.591276 -0.888114
lclavicle -5.76476e-14 -2.14687e-14 0
lhumerus -40.7049 -27.8375 98.7901
lradius 53.7888 -0 0
lwrist 6.95336 0 0
lhand -20.6455 -2.95365 0.0483788
lfingers 7.12502 -0 0
lthumb 5.71652 26.945 0.0463989
rclavicle -5.76476e-14 -2.14687e-14 0
rhumerus -49.3042 -2.71573 -88.415
rradius 65.7244 -0 0
rwrist 12.5622 0 0
rhand -30.9925 -29.2258 0.000427917
rfingers 7.12502 -0 0
rthumb -4.27584 -59.1626 0.000407983
446
root 1.69265 15.3731 -8.8504 5.21569 12.1742 -13.3981
lfemur -47.8275 17.1419 -0.38068
ltibia 61.7586 -0 0
lfoot -24.1052 -8.80464 0.048244
ltoes -7.9123 0 0
rfemur -12.4671 -3.21359 9.76599
rtibia 38.8197 -0 0
rfoot -7.14411 -14.0697 -0.0278021
rtoes -49.3896 0 0
lowerback 4.94537 1.32256 4.58909
upperback 0.668487 2.03264 1.17759
thorax -1.96377 0.988455 -1.51161
lowerneck -7.36298 -0.802482 5.04612
upperneck 1.09793 -1.51821 0.176243
head 1.57432 -0.725133 -0.867966
lclavicle -5.76476e-14 -2.14687e-14 0
lhumerus -41.0582 -27.6348 99.1754
lradius 53.6708 -0 0
lwrist 6.63037 0 0
lhand -20.8324 -3.50225 0.0609288
lfingers 7.12502 -0 0
lthumb 5.53602 26.4001 0.0584351
rclavicle -5.76476e-14 -2.14687e-14 0
rhumerus -49.6227 -2.77465 -87.9785
rradius 65.5209 -0 0
rwrist 12.4477 0 0
rhand -31.0164 -29.2638 0.000538859
rfingers 7.12502 -0 0
rthumb -4.29891 -59.2001 0.000513756
447
root 1.74344 15.4085 -8.78433 5.14835 14.0099 -13.3671
lfemur -48.076 17.2134 -1.47149
ltibia 61.4595 -0 0
lfoot -23.8834 -8.43817 0.0567608
ltoes -6.709 0 0
rfemur -11.8481 -3.16091 9.98347
rtibia 38.8175 -0 0
rfoot -5.2704 -14.0946 -0.0327435
rtoes -49.2893 0 0
lowerback 4.67422 1.25339 4.63754
upperback 0.58214 1.93144 1.24117
thorax -1.90712 0.938763 -1.46461
lowerneck -7.41275 -1.01187 4.90235
upperneck 1.20028 -1.7893 0.201839
head 1.61285 -0.859004 -0.847908
lclavicle -5.76476e-14 -2.14687e-14 0
lhumerus -41.4094 -27.4299 99.5586
lradius 53.5527 -0 0
lwrist 6.30737 0 0
lhand -21.0194 -4.05089 0.0716883
lfingers 7.12502 -0 0
lthumb 5.3554 25.8552 0.0687541
rclavicle -5.76476e-14 -2.14687e-14 0
rhumerus -49.9418 -2.83115 -87.5417
rradius 65.3175 -0 0
rwrist 12.3331 0 0
rhand -31.0403 -29.3018 0.000633952
rfingers 7.12502 -0 0
rthumb -4.32198 -59.2376 0.000604419
448
root 1.79423 15.4439 -8.71825 5.08147 15.8458 -13.3381
lfemur -48.3259 17.2803 -2.56303
ltibia 61.1603 -0 0
lfoot -23.6616 -8.07167 0.0638589
ltoes -5.5057 0 0
rfemur -11.229 -3.11057 10.2015
rtibia 38.8153 -0 0
rfoot -3.3967 -14.1196 -0.0368695
rtoes -49.189 0 0
lowerback 4.40302 1.18445 4.6863
upperback 0.495686 1.83032 1.30491
thorax -1.85051 0.889024 -1.41766
lowerneck -7.462 -1.22138 4.75875
upperneck 1.30252 -2.06045 0.226954
head 1.65133 -0.992889 -0.827939
lclavicle -5.76476e-14 -2.14687e-14 0
lhumerus -41.7583 -27.223 99.9397
lradius 53.4346 -0 0
lwrist 5.98438 0 0
lhand -21.2066 -4.59956 0.0806562
lfingers 7.12502 -0 0
lthumb 5.1747 25.3102 0.0773549
rclavicle -5.76476e-14 -2.14687e-14 0
rhumerus -50.2612 -2.88522 -87.1046
rradius 65.114 -0 0
rwrist 12.2185 0 0
rhand -31.0641 -29.3399 0.000713196
rfingers 7.12502 -0 0
rthumb -4.34505 -59.2751 0.000679972
449
root 1.84502 15.4792 -8.65218 5.01491 17.6816 -13.3111
lfemur -48.5773 17.3426 -3.65524
ltibia 60.8611 -0 0
lfoot -23.4397 -7.70515 0.0695378
ltoes -4.3024 0 0
rfemur -10.6097 -3.06259 10.4201
rtibia 38.8131 -0 0
rfoot -1.52299 -14.1447 -0.0401757
rtoes -49.0886 0 0
lowerback 4.13177 1.11574 4.7354
upperback 0.409124 1.72931 1.36878
thorax -1.79394 0.839238 -1.37076
lowerneck -7.51073 -1.43101 4.61533
upperneck 1.40466 -2.33164 0.25159
head 1.68977 -1.12679 -0.808059
lclavicle -5.76476e-14 -2.14687e-14 0
lhumerus -42.105 -27.0141 100.319
lradius 53.3165 -0 0
lwrist 5.66138 0 0
lhand -21.3938 -5.14826 0.0878316
lfingers 7.12502 -0 0
lthumb 4.99393 24.7652 0.0842365
rclavicle -5.76476e-14 -2.14687e-14 0
rhumerus -50.5811 -2.93685 -86.6671
rradius 64.9106 -0 0
rwrist 12.1039 0 0
rhand -31.088 -29.3779 0.000776592
rfingers 7.12502 -0 0
rthumb -4.36813 -59.3127 0.000740414
450
root 1.89581 15.5146 -8.58611 4.94855 19.5175 -13.286
lfemur -48.8299 17.4004 -4.74809
ltibia 60.562 -0 0
lfoot -23.2178 -7.33861 0.0737973
ltoes -3.0991 0 0
rfemur -9.99028 -3.01698 10.6391
rtibia 38.8109 -0 0
rfoot 0.350722 -14.17 -0.0426583
rtoes -48.9883 0 0
lowerback 3.86047 1.04727 4.78481
upperback 0.322453 1.62839 1.43281
thorax -1.73741 0.789407 -1.32391
lowerneck -7.55894 -1.64077 4.47206
upperneck 1.50671 -2.60287 0.275746
head 1.72816 -1.2607 -0.788267
lclavicle -5.76476e-14 -2.14687e-14 0
lhumerus -42.4495 -26.8031 100.695
lradius 53.1984 -0 0
lwrist 5.33838 0 0
lhand -21.5811 -5.69698 0.0932139
lfingers 7.12502 -0 0
lthumb 4.81309 24.2202 0.0893983
rclavicle -5.76476e-14 -2.14687e-14 0
rhumerus -50.9014 -2.98603 -86.2293
rradius 64.7072 -0 0
rwrist 11.9893 0 0
rhand -31.1119 -29.4159 0.000824139
rfingers 7.12502 -0 0
rthumb -4.3912 -59.3502 0.000785746
451
root 1.9466 15.55 -8.52003 4.88226 21.3534 -13.263
lfemur -49.0837 17.4536 -5.84153
ltibia 60.2628 -0 0
lfoot -22.9959 -6.97205 0.0766371
ltoes -1.8958 0 0
rfemur -9.3707 -2.97373 10.8586
rtibia 38.8087 -0 0
rfoot 2.22443 -14.1952 -0.0443149
rtoes -48.888 0 0
lowerback 3.58912 0.979028 4.83455
upperback 0.235675 1.52756 1.49699
thorax -1.68093 0.739529 -1.27712
lowerneck -7.60663 -1.85064 4.32896
upperneck 1.60866 -2.87414 0.299425
head 1.76651 -1.39462 -0.768565
lclavicle -5.76476e-14 -2.14687e-14 0
lhumerus -42.7918 -26.5901 101.07
lradius 53.0803 -0 0
lwrist 5.01539 0 0
lhand -21.7684 -6.24571 0.0968023
lfingers 7.12502 -0 0
lthumb 4.63222 23.6752 0.0928398
rclavicle -5.76476e-14 -2.14687e-14 0
rhumerus -51.222 -3.03278 -85.7913
rradius 64.5037 -0 0
rwrist 11.8747 0 0
rhand -31.1358 -29.4539 0.000855836
rfingers 7.12502 -0 0
rthumb -4.41427 -59.3877 0.000815967
452
root 1.99739 15.5854 -8.45396 4.81589 23.1894 -13.2419
lfemur -49.3386 17.5021 -6.93551
ltibia 59.9636 -0 0
lfoot -22.7739 -6.60548 0.078057
ltoes -0.6925 0 0
rfemur -8.75099 -2.93285 11.0786
rtibia 38.8065 -0 0
rfoot 4.09814 -14.2206 -0.0451437
rtoes -48.7876 0 0
lowerback 3.31771 0.911024 4.88461
upperback 0.148787 1.42684 1.56132
thorax -1.62448 0.689605 -1.23037
lowerneck -7.65379 -2.06064 4.18601
upperneck 1.71053 -3.14546 0.322625
head 1.80482 -1.52856 -0.748951
lclavicle -5.76476e-14 -2.14687e-14 0
lhumerus -43.1319 -26.3752 101.443
lradius 52.9622 -0 0
lwrist 4.69239 0 0
lhand -21.9557 -6.79445 0.0985966
lfingers 7.12502 -0 0
lthumb 4.45132 23.1302 0.0945607
rclavicle -5.76476e-14 -2.14687e-14 0
rhumerus -51.543 -3.07707 -85.353
rradius 64.3003 -0 0
rwrist 11.7601 0 0
rhand -31.1597 -29.4919 0.000871685
rfingers 7.12502 -0 0
rthumb -4.43734 -59.4252 0.000831078
